<svg width="154" height="41" viewBox="0 0 154 41" fill="none" xmlns="http://www.w3.org/2000/svg">
<path d="M55.3613 26.917C54.623 26.917 53.9609 26.7998 53.375 26.5654C52.7891 26.3252 52.291 25.9941 51.8809 25.5723C51.4766 25.1504 51.166 24.6611 50.9492 24.1045C50.7324 23.542 50.624 22.9443 50.624 22.3115V21.96C50.624 21.2393 50.7266 20.5801 50.9316 19.9824C51.1367 19.3848 51.4297 18.8662 51.8105 18.4268C52.1973 17.9873 52.666 17.6504 53.2168 17.416C53.7676 17.1758 54.3887 17.0557 55.0801 17.0557C55.7539 17.0557 56.3516 17.167 56.873 17.3896C57.3945 17.6123 57.8311 17.9287 58.1826 18.3389C58.54 18.749 58.8096 19.2412 58.9912 19.8154C59.1729 20.3838 59.2637 21.0166 59.2637 21.7139V22.7686H51.7051V21.0811H56.7764V20.8877C56.7764 20.5361 56.7119 20.2227 56.583 19.9473C56.46 19.666 56.2725 19.4434 56.0205 19.2793C55.7686 19.1152 55.4463 19.0332 55.0537 19.0332C54.7197 19.0332 54.4326 19.1064 54.1924 19.2529C53.9521 19.3994 53.7559 19.6045 53.6035 19.8682C53.457 20.1318 53.3457 20.4424 53.2695 20.7998C53.1992 21.1514 53.1641 21.5381 53.1641 21.96V22.3115C53.1641 22.6924 53.2168 23.0439 53.3223 23.3662C53.4336 23.6885 53.5889 23.9668 53.7881 24.2012C53.9932 24.4355 54.2393 24.6172 54.5264 24.7461C54.8193 24.875 55.1504 24.9395 55.5195 24.9395C55.9766 24.9395 56.4014 24.8516 56.7939 24.6758C57.1924 24.4941 57.5352 24.2217 57.8223 23.8584L59.0527 25.1943C58.8535 25.4814 58.5811 25.7568 58.2354 26.0205C57.8955 26.2842 57.4854 26.501 57.0049 26.6709C56.5244 26.835 55.9766 26.917 55.3613 26.917ZM63.2363 19.2002V26.7412H60.6963V17.2314H63.0781L63.2363 19.2002ZM62.8848 21.6523H62.1816C62.1816 20.9902 62.2607 20.3809 62.4189 19.8242C62.583 19.2617 62.8203 18.7754 63.1309 18.3652C63.4473 17.9492 63.8369 17.627 64.2998 17.3984C64.7627 17.1699 65.2988 17.0557 65.9082 17.0557C66.3301 17.0557 66.7168 17.1201 67.0684 17.249C67.4199 17.3721 67.7217 17.5684 67.9736 17.8379C68.2314 18.1016 68.4307 18.4473 68.5713 18.875C68.7119 19.2969 68.7822 19.8037 68.7822 20.3955V26.7412H66.251V20.6768C66.251 20.2432 66.1924 19.9092 66.0752 19.6748C65.958 19.4404 65.791 19.2764 65.5742 19.1826C65.3633 19.0889 65.1084 19.042 64.8096 19.042C64.4814 19.042 64.1943 19.1094 63.9482 19.2441C63.708 19.3789 63.5088 19.5664 63.3506 19.8066C63.1924 20.041 63.0752 20.3164 62.999 20.6328C62.9229 20.9492 62.8848 21.2891 62.8848 21.6523ZM68.5449 21.3623L67.6396 21.4766C67.6396 20.8555 67.7158 20.2783 67.8682 19.7451C68.0264 19.2119 68.2578 18.7432 68.5625 18.3389C68.873 17.9346 69.2568 17.6211 69.7139 17.3984C70.1709 17.1699 70.6982 17.0557 71.2959 17.0557C71.7529 17.0557 72.1689 17.123 72.5439 17.2578C72.9189 17.3867 73.2383 17.5947 73.502 17.8818C73.7715 18.1631 73.9766 18.5322 74.1172 18.9893C74.2637 19.4463 74.3369 20.0059 74.3369 20.668V26.7412H71.7969V20.668C71.7969 20.2285 71.7383 19.8945 71.6211 19.666C71.5098 19.4316 71.3457 19.2705 71.1289 19.1826C70.918 19.0889 70.666 19.042 70.373 19.042C70.0684 19.042 69.8018 19.1035 69.5732 19.2266C69.3447 19.3438 69.1543 19.5078 69.002 19.7188C68.8496 19.9297 68.7354 20.1758 68.6592 20.457C68.583 20.7324 68.5449 21.0342 68.5449 21.3623ZM76.2969 13.2412H78.8281V24.5615L78.5732 26.7412H76.2969V13.2412ZM84.8486 21.8896V22.0742C84.8486 22.7832 84.7725 23.4336 84.6201 24.0254C84.4736 24.6172 84.2451 25.1299 83.9346 25.5635C83.624 25.9912 83.2373 26.3252 82.7744 26.5654C82.3174 26.7998 81.7783 26.917 81.1572 26.917C80.5771 26.917 80.0732 26.7998 79.6455 26.5654C79.2236 26.3311 78.8691 26 78.582 25.5723C78.2949 25.1445 78.0635 24.6436 77.8877 24.0693C77.7119 23.4951 77.5801 22.8682 77.4922 22.1885V21.7842C77.5801 21.1045 77.7119 20.4775 77.8877 19.9033C78.0635 19.3291 78.2949 18.8281 78.582 18.4004C78.8691 17.9727 79.2236 17.6416 79.6455 17.4072C80.0674 17.1729 80.5654 17.0557 81.1396 17.0557C81.7666 17.0557 82.3115 17.1758 82.7744 17.416C83.2432 17.6504 83.6299 17.9844 83.9346 18.418C84.2451 18.8457 84.4736 19.3555 84.6201 19.9473C84.7725 20.5332 84.8486 21.1807 84.8486 21.8896ZM82.3174 22.0742V21.8896C82.3174 21.5029 82.2881 21.1396 82.2295 20.7998C82.1768 20.4541 82.083 20.1523 81.9482 19.8945C81.8135 19.6309 81.6289 19.4229 81.3945 19.2705C81.166 19.1182 80.8701 19.042 80.5068 19.042C80.1611 19.042 79.8682 19.1006 79.6279 19.2178C79.3877 19.335 79.1885 19.499 79.0303 19.71C78.8779 19.9209 78.7637 20.1729 78.6875 20.4658C78.6113 20.7529 78.5645 21.0693 78.5469 21.415V22.5664C78.5645 23.0293 78.6406 23.4395 78.7754 23.7969C78.916 24.1484 79.127 24.4268 79.4082 24.6318C79.6953 24.8311 80.0674 24.9307 80.5244 24.9307C80.8818 24.9307 81.1777 24.8604 81.4121 24.7197C81.6465 24.5791 81.8281 24.3799 81.957 24.1221C82.0918 23.8643 82.1855 23.5625 82.2383 23.2168C82.291 22.8652 82.3174 22.4844 82.3174 22.0742ZM90.7988 26.917C90.0605 26.917 89.3984 26.7998 88.8125 26.5654C88.2266 26.3252 87.7285 25.9941 87.3184 25.5723C86.9141 25.1504 86.6035 24.6611 86.3867 24.1045C86.1699 23.542 86.0615 22.9443 86.0615 22.3115V21.96C86.0615 21.2393 86.1641 20.5801 86.3691 19.9824C86.5742 19.3848 86.8672 18.8662 87.248 18.4268C87.6348 17.9873 88.1035 17.6504 88.6543 17.416C89.2051 17.1758 89.8262 17.0557 90.5176 17.0557C91.1914 17.0557 91.7891 17.167 92.3105 17.3896C92.832 17.6123 93.2686 17.9287 93.6201 18.3389C93.9775 18.749 94.2471 19.2412 94.4287 19.8154C94.6104 20.3838 94.7012 21.0166 94.7012 21.7139V22.7686H87.1426V21.0811H92.2139V20.8877C92.2139 20.5361 92.1494 20.2227 92.0205 19.9473C91.8975 19.666 91.71 19.4434 91.458 19.2793C91.2061 19.1152 90.8838 19.0332 90.4912 19.0332C90.1572 19.0332 89.8701 19.1064 89.6299 19.2529C89.3896 19.3994 89.1934 19.6045 89.041 19.8682C88.8945 20.1318 88.7832 20.4424 88.707 20.7998C88.6367 21.1514 88.6016 21.5381 88.6016 21.96V22.3115C88.6016 22.6924 88.6543 23.0439 88.7598 23.3662C88.8711 23.6885 89.0264 23.9668 89.2256 24.2012C89.4307 24.4355 89.6768 24.6172 89.9639 24.7461C90.2568 24.875 90.5879 24.9395 90.957 24.9395C91.4141 24.9395 91.8389 24.8516 92.2314 24.6758C92.6299 24.4941 92.9727 24.2217 93.2598 23.8584L94.4902 25.1943C94.291 25.4814 94.0186 25.7568 93.6729 26.0205C93.333 26.2842 92.9229 26.501 92.4424 26.6709C91.9619 26.835 91.4141 26.917 90.7988 26.917ZM101.759 24.667V13.2412H104.308V26.7412H102.014L101.759 24.667ZM95.7471 22.1006V21.916C95.7471 21.1895 95.8291 20.5303 95.9932 19.9385C96.1572 19.3408 96.3975 18.8281 96.7139 18.4004C97.0303 17.9727 97.4199 17.6416 97.8828 17.4072C98.3457 17.1729 98.873 17.0557 99.4648 17.0557C100.021 17.0557 100.508 17.1729 100.924 17.4072C101.346 17.6416 101.703 17.9756 101.996 18.4092C102.295 18.8369 102.535 19.3438 102.717 19.9297C102.898 20.5098 103.03 21.1455 103.112 21.8369V22.2412C103.03 22.9033 102.898 23.5186 102.717 24.0869C102.535 24.6553 102.295 25.1533 101.996 25.5811C101.703 26.0029 101.346 26.3311 100.924 26.5654C100.502 26.7998 100.01 26.917 99.4473 26.917C98.8555 26.917 98.3281 26.7969 97.8652 26.5566C97.4082 26.3164 97.0215 25.9795 96.7051 25.5459C96.3945 25.1123 96.1572 24.6025 95.9932 24.0166C95.8291 23.4307 95.7471 22.792 95.7471 22.1006ZM98.2783 21.916V22.1006C98.2783 22.4932 98.3076 22.8594 98.3662 23.1992C98.4307 23.5391 98.5332 23.8408 98.6738 24.1045C98.8203 24.3623 99.0078 24.5645 99.2363 24.7109C99.4707 24.8516 99.7549 24.9219 100.089 24.9219C100.522 24.9219 100.88 24.8252 101.161 24.6318C101.442 24.4326 101.656 24.1602 101.803 23.8145C101.955 23.4688 102.043 23.0703 102.066 22.6191V21.4678C102.049 21.0986 101.996 20.7676 101.908 20.4746C101.826 20.1758 101.703 19.9209 101.539 19.71C101.381 19.499 101.182 19.335 100.941 19.2178C100.707 19.1006 100.429 19.042 100.106 19.042C99.7783 19.042 99.4971 19.1182 99.2627 19.2705C99.0283 19.417 98.8379 19.6191 98.6914 19.877C98.5508 20.1348 98.4453 20.4395 98.375 20.791C98.3105 21.1367 98.2783 21.5117 98.2783 21.916ZM111.427 24.1133C111.427 23.9316 111.374 23.7676 111.269 23.6211C111.163 23.4746 110.967 23.3398 110.68 23.2168C110.398 23.0879 109.991 22.9707 109.458 22.8652C108.978 22.7598 108.529 22.6279 108.113 22.4697C107.703 22.3057 107.346 22.1094 107.041 21.8809C106.742 21.6523 106.508 21.3828 106.338 21.0723C106.168 20.7559 106.083 20.3955 106.083 19.9912C106.083 19.5928 106.168 19.2178 106.338 18.8662C106.514 18.5146 106.763 18.2041 107.085 17.9346C107.413 17.6592 107.812 17.4453 108.28 17.293C108.755 17.1348 109.288 17.0557 109.88 17.0557C110.706 17.0557 111.415 17.1875 112.007 17.4512C112.604 17.7148 113.062 18.0781 113.378 18.541C113.7 18.998 113.861 19.5195 113.861 20.1055H111.33C111.33 19.8594 111.277 19.6396 111.172 19.4463C111.072 19.2471 110.914 19.0918 110.697 18.9805C110.486 18.8633 110.211 18.8047 109.871 18.8047C109.59 18.8047 109.347 18.8545 109.142 18.9541C108.937 19.0479 108.778 19.1768 108.667 19.3408C108.562 19.499 108.509 19.6748 108.509 19.8682C108.509 20.0146 108.538 20.1465 108.597 20.2637C108.661 20.375 108.764 20.4775 108.904 20.5713C109.045 20.665 109.227 20.7529 109.449 20.835C109.678 20.9111 109.959 20.9814 110.293 21.0459C110.979 21.1865 111.591 21.3711 112.13 21.5996C112.669 21.8223 113.097 22.127 113.413 22.5137C113.729 22.8945 113.888 23.3955 113.888 24.0166C113.888 24.4385 113.794 24.8252 113.606 25.1768C113.419 25.5283 113.149 25.8359 112.798 26.0996C112.446 26.3574 112.024 26.5596 111.532 26.7061C111.046 26.8467 110.498 26.917 109.889 26.917C109.004 26.917 108.254 26.7588 107.639 26.4424C107.029 26.126 106.566 25.7246 106.25 25.2383C105.939 24.7461 105.784 24.2422 105.784 23.7266H108.184C108.195 24.0723 108.283 24.3506 108.447 24.5615C108.617 24.7725 108.831 24.9248 109.089 25.0186C109.353 25.1123 109.637 25.1592 109.941 25.1592C110.27 25.1592 110.542 25.1152 110.759 25.0273C110.976 24.9336 111.14 24.8105 111.251 24.6582C111.368 24.5 111.427 24.3184 111.427 24.1133ZM115.127 22.083V21.8984C115.127 21.2012 115.227 20.5596 115.426 19.9736C115.625 19.3818 115.915 18.8691 116.296 18.4355C116.677 18.002 117.146 17.665 117.702 17.4248C118.259 17.1787 118.897 17.0557 119.618 17.0557C120.339 17.0557 120.98 17.1787 121.543 17.4248C122.105 17.665 122.577 18.002 122.958 18.4355C123.345 18.8691 123.638 19.3818 123.837 19.9736C124.036 20.5596 124.136 21.2012 124.136 21.8984V22.083C124.136 22.7744 124.036 23.416 123.837 24.0078C123.638 24.5938 123.345 25.1064 122.958 25.5459C122.577 25.9795 122.108 26.3164 121.552 26.5566C120.995 26.7969 120.356 26.917 119.636 26.917C118.915 26.917 118.273 26.7969 117.711 26.5566C117.154 26.3164 116.683 25.9795 116.296 25.5459C115.915 25.1064 115.625 24.5938 115.426 24.0078C115.227 23.416 115.127 22.7744 115.127 22.083ZM117.658 21.8984V22.083C117.658 22.4814 117.693 22.8535 117.764 23.1992C117.834 23.5449 117.945 23.8496 118.098 24.1133C118.256 24.3711 118.461 24.5732 118.713 24.7197C118.965 24.8662 119.272 24.9395 119.636 24.9395C119.987 24.9395 120.289 24.8662 120.541 24.7197C120.793 24.5732 120.995 24.3711 121.147 24.1133C121.3 23.8496 121.411 23.5449 121.481 23.1992C121.558 22.8535 121.596 22.4814 121.596 22.083V21.8984C121.596 21.5117 121.558 21.1484 121.481 20.8086C121.411 20.4629 121.297 20.1582 121.139 19.8945C120.986 19.625 120.784 19.4141 120.532 19.2617C120.28 19.1094 119.976 19.0332 119.618 19.0332C119.261 19.0332 118.956 19.1094 118.704 19.2617C118.458 19.4141 118.256 19.625 118.098 19.8945C117.945 20.1582 117.834 20.4629 117.764 20.8086C117.693 21.1484 117.658 21.5117 117.658 21.8984ZM129.62 24.9395C129.931 24.9395 130.206 24.8809 130.446 24.7637C130.687 24.6406 130.874 24.4707 131.009 24.2539C131.149 24.0312 131.223 23.7705 131.229 23.4717H133.61C133.604 24.1396 133.426 24.7344 133.074 25.2559C132.723 25.7715 132.251 26.1787 131.659 26.4775C131.067 26.7705 130.405 26.917 129.673 26.917C128.935 26.917 128.29 26.7939 127.739 26.5479C127.194 26.3018 126.74 25.9619 126.377 25.5283C126.014 25.0889 125.741 24.5791 125.56 23.999C125.378 23.4131 125.287 22.7861 125.287 22.1182V21.8633C125.287 21.1895 125.378 20.5625 125.56 19.9824C125.741 19.3965 126.014 18.8867 126.377 18.4531C126.74 18.0137 127.194 17.6709 127.739 17.4248C128.284 17.1787 128.923 17.0557 129.655 17.0557C130.435 17.0557 131.117 17.2051 131.703 17.5039C132.295 17.8027 132.758 18.2305 133.092 18.7871C133.432 19.3379 133.604 19.9912 133.61 20.7471H131.229C131.223 20.4307 131.155 20.1436 131.026 19.8857C130.903 19.6279 130.722 19.4229 130.481 19.2705C130.247 19.1123 129.957 19.0332 129.611 19.0332C129.242 19.0332 128.94 19.1123 128.706 19.2705C128.472 19.4229 128.29 19.6338 128.161 19.9033C128.032 20.167 127.941 20.4688 127.889 20.8086C127.842 21.1426 127.818 21.4941 127.818 21.8633V22.1182C127.818 22.4873 127.842 22.8418 127.889 23.1816C127.936 23.5215 128.023 23.8232 128.152 24.0869C128.287 24.3506 128.472 24.5586 128.706 24.7109C128.94 24.8633 129.245 24.9395 129.62 24.9395ZM137.75 17.2314V26.7412H135.21V17.2314H137.75ZM135.052 14.7529C135.052 14.3838 135.181 14.0791 135.438 13.8389C135.696 13.5986 136.042 13.4785 136.476 13.4785C136.903 13.4785 137.246 13.5986 137.504 13.8389C137.768 14.0791 137.899 14.3838 137.899 14.7529C137.899 15.1221 137.768 15.4268 137.504 15.667C137.246 15.9072 136.903 16.0273 136.476 16.0273C136.042 16.0273 135.696 15.9072 135.438 15.667C135.181 15.4268 135.052 15.1221 135.052 14.7529ZM144.975 24.5967V20.3604C144.975 20.0557 144.925 19.7949 144.825 19.5781C144.726 19.3555 144.57 19.1826 144.359 19.0596C144.154 18.9365 143.888 18.875 143.56 18.875C143.278 18.875 143.035 18.9248 142.83 19.0244C142.625 19.1182 142.467 19.2559 142.355 19.4375C142.244 19.6133 142.188 19.8213 142.188 20.0615H139.657C139.657 19.6572 139.751 19.2734 139.938 18.9102C140.126 18.5469 140.398 18.2275 140.756 17.9521C141.113 17.6709 141.538 17.4512 142.03 17.293C142.528 17.1348 143.085 17.0557 143.7 17.0557C144.438 17.0557 145.095 17.1787 145.669 17.4248C146.243 17.6709 146.694 18.04 147.022 18.5322C147.356 19.0244 147.523 19.6396 147.523 20.3779V24.4473C147.523 24.9688 147.556 25.3965 147.62 25.7305C147.685 26.0586 147.778 26.3457 147.901 26.5918V26.7412H145.344C145.221 26.4834 145.127 26.1611 145.062 25.7744C145.004 25.3818 144.975 24.9893 144.975 24.5967ZM145.309 20.9492L145.326 22.3818H143.911C143.577 22.3818 143.287 22.4199 143.041 22.4961C142.795 22.5723 142.593 22.6807 142.435 22.8213C142.276 22.9561 142.159 23.1143 142.083 23.2959C142.013 23.4775 141.978 23.6768 141.978 23.8936C141.978 24.1104 142.027 24.3066 142.127 24.4824C142.227 24.6523 142.37 24.7871 142.558 24.8867C142.745 24.9805 142.965 25.0273 143.217 25.0273C143.598 25.0273 143.929 24.9512 144.21 24.7988C144.491 24.6465 144.708 24.459 144.86 24.2363C145.019 24.0137 145.101 23.8027 145.106 23.6035L145.774 24.6758C145.681 24.916 145.552 25.165 145.388 25.4229C145.229 25.6807 145.027 25.9238 144.781 26.1523C144.535 26.375 144.239 26.5596 143.894 26.7061C143.548 26.8467 143.138 26.917 142.663 26.917C142.06 26.917 141.512 26.7969 141.02 26.5566C140.533 26.3105 140.146 25.9736 139.859 25.5459C139.578 25.1123 139.438 24.6201 139.438 24.0693C139.438 23.5713 139.531 23.1289 139.719 22.7422C139.906 22.3555 140.182 22.0303 140.545 21.7666C140.914 21.4971 141.374 21.2949 141.925 21.1602C142.476 21.0195 143.114 20.9492 143.841 20.9492H145.309ZM152.146 13.2412V26.7412H149.606V13.2412H152.146Z" fill="white"/>
<rect y="0.741211" width="40" height="40" rx="6.66667" fill="white"/>
<path d="M19.6589 12.2454V13.3623C19.6589 14.3233 19.479 14.4791 18.8585 14.8169L13.077 17.752V17.8819L18.8322 20.7652C19.479 21.1027 19.6589 21.2328 19.6589 22.2199V23.4665C19.6589 24.2457 19.4002 24.5055 18.7291 24.142L10.0307 19.3623C9.51516 19.0767 9.33331 18.8688 9.33331 18.2717V17.4404C9.33331 16.8429 9.51516 16.6091 10.0307 16.3235L18.7291 11.5699C19.4002 11.2064 19.6589 11.466 19.6589 12.2454Z" fill="#111827"/>
<path d="M20.5775 16.3529L29.2497 21.1063C29.7915 21.392 29.9733 21.5998 29.9733 22.1971V23.0284C29.9733 23.6518 29.7915 23.8595 29.2497 24.1452L20.5775 28.8987C19.8802 29.2624 19.6477 29.0027 19.6477 28.2234V27.1065C19.6477 26.1455 19.8277 25.9895 20.4482 25.6779L26.2296 22.7427V22.5869L20.4744 19.7036C19.8277 19.392 19.6477 19.236 19.6477 18.2489V17.0021C19.6477 16.2228 19.8802 15.9633 20.5775 16.3529Z" fill="#111827"/>
</svg>
